<svg width="48" height="48" viewBox="0 0 48 48" fill="none" xmlns="http://www.w3.org/2000/svg">
<rect width="48" height="48" rx="15.36" fill="black" fill-opacity="0.9"/>
<path fill-rule="evenodd" clip-rule="evenodd" d="M10.0001 35.6305C9.96935 34.8871 10.1497 34.0228 10.3936 33.1688C11.4027 29.6362 12.795 25.0949 14.111 20.8228C14.2457 20.3856 14.3796 19.9513 14.5121 19.5212C15.6811 15.728 16.7483 12.2653 17.4003 9.99915L22.599 10.0038C21.9317 12.3231 20.8478 15.8399 19.6846 19.6139C19.5508 20.0481 19.416 20.4856 19.2806 20.9251C18.3911 23.8126 17.4762 26.7928 16.6707 29.4915C18.226 27.7678 20.026 25.655 21.908 23.4174C22.3973 22.8357 22.8912 22.2467 23.3851 21.6577C26.0312 18.502 28.6782 15.3453 30.6202 13.3027C31.2055 12.687 31.7848 12.1102 32.3228 11.6388C32.7472 11.267 33.5389 10.6007 34.4685 10.2484C35.0123 10.0423 35.9312 9.82347 36.7807 10.1873C37.6188 10.5463 37.8821 11.2565 37.9622 11.7092C38.1029 12.5043 37.8501 13.4165 37.6515 14.0364C35.2328 21.5852 33.2521 28.6107 31.7177 34.0531C31.3141 35.4849 30.9413 36.8072 30.5996 38.0005L25.399 38.0024C25.7326 36.8377 26.0994 35.5365 26.4987 34.12C27.6037 30.2002 28.9576 25.3975 30.5442 20.1593C29.5398 21.3387 28.4642 22.621 27.353 23.9458C26.8492 24.5464 26.3382 25.1557 25.8231 25.7681C22.7068 29.4731 19.3774 33.3732 17.0123 35.5472C16.4121 36.0989 15.7494 36.6572 15.0805 37.0871C14.5733 37.4131 13.277 38.1857 11.9187 37.9551C10.289 37.6784 10.0276 36.2958 10.0001 35.6305ZM35.6725 14.6146C35.6725 14.6147 35.669 14.6173 35.6621 14.6218C35.6691 14.6168 35.6726 14.6145 35.6725 14.6146ZM12.8926 33.2212C12.8013 33.2799 12.8102 33.2633 12.8953 33.2195C12.8944 33.2201 12.8935 33.2206 12.8926 33.2212Z" fill="white"/>
</svg>
