<svg width="48" height="48" viewBox="0 0 48 48" fill="none" xmlns="http://www.w3.org/2000/svg">
<rect width="48" height="48" rx="6" fill="#4139EF"/>
<path d="M4 18H9V30V30C8.62857 30 8.44286 30 8.28608 29.9893C5.99298 29.8324 4.16758 28.007 4.01072 25.7139C4 25.5571 4 25.3714 4 25V18Z" fill="white"/>
<rect x="11" y="18" width="5" height="12" fill="white"/>
<path d="M23 18H18V30V30C18.3714 30 18.5571 30 18.7139 29.9893C21.007 29.8324 22.8324 28.007 22.9893 25.7139C23 25.5571 23 25.3714 23 25V18Z" fill="white"/>
<rect x="25" y="18" width="5" height="12" fill="white"/>
<rect x="32" y="18" width="5" height="12" fill="white"/>
<path d="M44 30H39V18V18C39.3714 18 39.5571 18 39.7139 18.0107C42.007 18.1676 43.8324 19.993 43.9893 22.2861C44 22.4429 44 22.6286 44 23V30Z" fill="white"/>
</svg>
